<?xml version="1.0" encoding="utf-8"?>
<!-- Generator: Adobe Illustrator 16.0.0, SVG Export Plug-In . SVG Version: 6.00 Build 0)  -->
<!DOCTYPE svg PUBLIC "-//W3C//DTD SVG 1.1//EN" "http://www.w3.org/Graphics/SVG/1.1/DTD/svg11.dtd">
<svg version="1.1" id="Capa_1" xmlns="http://www.w3.org/2000/svg" xmlns:xlink="http://www.w3.org/1999/xlink" x="0px" y="0px"
	 width="833.7px" height="833.7px" viewBox="0 0 833.7 833.7" enable-background="new 0 0 833.7 833.7" xml:space="preserve">
<g>
	<path fill="#183099" d="M416.8,0C208.5,0.1,39.6,169,39.6,377.399V555.2c0,9.398,4.4,18.199,11.9,23.898L213.7,702.2v101.5
		c0,16.6,13.4,30,30,30h24.1c16.6,0,30-13.4,30-30V762.5c0-10.5,8.5-19,19-19l0,0c10.5,0,19,8.5,19,19V803.7c0,16.6,13.4,30,30,30h1
		c16.601,0,30-13.4,30-30V762.5c0-10.5,8.5-19,19-19h2c10.5,0,19,8.5,19,19V803.7c0,16.6,13.4,30,30,30h1c16.602,0,30-13.4,30-30
		V762.5c0-10.5,8.5-19,19-19l0,0c10.5,0,19,8.5,19,19V803.7c0,16.6,13.4,30,30,30H590c16.6,0,30-13.4,30-30V702.1L782.2,579
		c7.5-5.701,11.898-14.5,11.898-23.9V377.3C794,169,625.1,0.1,416.8,0z M259.1,558.1c-57.4,0-104-46.6-104-104
		c0-57.399,46.6-104,104-104s104,46.601,104,104C363.1,511.6,316.5,558.1,259.1,558.1z M446.401,634.6H387.3
		c-13.7,0-22.399-14.699-15.8-26.699l29.6-53.699c6.801-12.4,24.7-12.4,31.5,0l29.602,53.699
		C468.702,619.899,460,634.6,446.401,634.6z M574.5,558.1c-57.4,0-104-46.6-104-104c0-57.399,46.6-104,104-104
		c57.398,0,104,46.601,104,104C678.5,511.6,632,558.1,574.5,558.1z"/>
</g>
</svg>
