<?xml version="1.0" standalone="no"?>
<!DOCTYPE svg PUBLIC "-//W3C//DTD SVG 20010904//EN"
 "http://www.w3.org/TR/2001/REC-SVG-20010904/DTD/svg10.dtd">
<svg version="1.0" xmlns="http://www.w3.org/2000/svg"
 width="700.000000pt" height="700.000000pt" viewBox="0 0 700.000000 700.000000"
 preserveAspectRatio="xMidYMid meet">
<metadata>
Created by potrace 1.11, written by Peter Selinger 2001-2013
</metadata>
<g transform="translate(0.000000,700.000000) scale(0.100000,-0.100000)"
fill="#000000" stroke="none">
<path d="M3298 6995 c-2 -1 -40 -6 -84 -9 -45 -4 -93 -9 -105 -11 -13 -2 -46
-6 -73 -10 -79 -10 -204 -34 -310 -61 -99 -25 -324 -96 -361 -114 -11 -5 -44
-19 -74 -30 -76 -29 -267 -124 -369 -182 -721 -415 -1259 -1111 -1477 -1911
-14 -53 -28 -106 -30 -118 -2 -11 -6 -28 -9 -37 -3 -9 -8 -33 -11 -52 -3 -19
-10 -57 -15 -85 -13 -69 -19 -117 -26 -189 -3 -33 -8 -72 -11 -86 -3 -14 -7
-421 -9 -906 -2 -645 0 -891 8 -920 15 -48 44 -94 83 -128 26 -22 968 -739
1039 -791 24 -17 132 -100 161 -123 6 -4 46 -35 90 -67 l80 -60 1 -455 c0
-502 -1 -489 64 -564 62 -70 95 -80 271 -83 98 -2 169 1 190 9 59 20 125 75
150 126 22 44 24 60 26 247 4 268 5 275 55 324 25 25 51 42 67 43 14 0 39 2
54 2 42 2 99 -34 124 -79 20 -36 22 -52 23 -244 0 -113 5 -223 11 -245 57
-213 345 -250 464 -61 28 44 27 40 34 290 7 256 10 268 73 312 53 36 136 38
190 5 68 -42 76 -76 77 -322 1 -209 1 -215 26 -267 47 -94 132 -143 242 -139
96 4 176 56 219 142 17 34 19 65 22 239 3 269 4 278 54 326 22 21 50 40 62 41
63 4 98 -2 130 -22 66 -40 70 -57 76 -320 5 -234 5 -235 33 -282 25 -44 57
-73 117 -108 18 -10 68 -15 187 -17 145 -3 167 -1 210 18 60 25 107 70 135
129 22 44 23 50 23 500 l1 455 316 240 c174 132 329 250 345 262 15 12 174
132 353 268 179 135 344 263 367 285 25 24 49 60 61 92 20 52 20 74 17 933 -1
484 -6 903 -9 930 -3 28 -9 70 -13 95 -3 25 -6 48 -5 52 7 33 -74 386 -125
543 -69 212 -185 473 -269 607 -13 21 -24 40 -24 43 0 12 -172 259 -242 347
-227 285 -573 590 -843 742 -16 9 -57 32 -90 51 -102 60 -295 151 -403 192
-259 97 -519 162 -757 189 -33 3 -73 8 -90 11 -34 5 -492 13 -497 8z m-955
-2950 c274 -58 510 -245 625 -495 58 -127 77 -219 76 -380 -2 -326 -185 -615
-489 -768 -298 -149 -680 -101 -942 119 -131 111 -240 286 -284 454 -22 89
-31 268 -17 344 74 383 324 642 701 726 61 13 268 14 330 0z m2652 0 c63 -13
182 -58 245 -92 354 -193 528 -598 426 -990 -18 -69 -61 -173 -86 -213 -9 -14
-29 -43 -43 -65 -121 -183 -368 -335 -588 -361 -89 -10 -196 -11 -244 -1 -204
41 -299 83 -437 194 -158 128 -266 313 -304 523 -13 73 -13 241 1 305 57 282
238 514 490 631 96 44 154 62 225 70 30 4 57 9 60 11 6 6 213 -4 255 -12z
m-1413 -1647 c33 -22 58 -62 193 -308 107 -194 118 -220 119 -267 1 -56 -17
-89 -68 -127 -26 -20 -40 -21 -326 -21 -286 0 -300 1 -326 21 -45 33 -68 71
-70 116 -2 52 -4 49 133 297 62 112 113 207 113 209 0 3 12 21 26 40 51 66
140 83 206 40z"/>
</g>
</svg>
